# xmcd
#
# Track frame offsets:
#	150
#	42201
#	86023
#	111133
#	163455
#
# Disc length: 2745 seconds
#
# Revision: 0
# Processed by: cddbd v1.5.2PL0 Copyright (c) Steve Scherf et al.
# Submitted via: audiograbber 1.83.01
#
DISCID=3c0ab705
DTITLE=Mostly Other People Do the Killing - Blue
DYEAR=2014
DGENRE=Jazz
TTITLE0=So What
TTITLE1=Freddie Freeloader
TTITLE2=Blue in Green
TTITLE3=All Blues
TTITLE4=Flamenco Sketches
EXTD=
EXTT0=
EXTT1=
EXTT2=
EXTT3=
EXTT4=
PLAYORDER=
